<?xml version="1.0" encoding="UTF-8" standalone="no"?>
<svg
   id="VK_Logo"
   viewBox="0 0 202 202"
   width="2500"
   height="2500"
   version="1.1"
   xml:space="preserve"
   xmlns:xlink="http://www.w3.org/1999/xlink"
   xmlns="http://www.w3.org/2000/svg"
   xmlns:svg="http://www.w3.org/2000/svg"><defs
     id="defs2"><clipPath
       id="clip0_1542_6"><rect
         width="1494"
         height="380"
         fill="white"
         id="rect10" /></clipPath></defs><style
     id="style1">.st0{clip-path:url(#SVGID_2_);fill:#5181b8}.st1{fill-rule:evenodd;clip-rule:evenodd;fill:#fff}</style><g
     id="Base"
     style="display:none"><defs
       id="defs1"><path
         id="SVGID_1_"
         d="m 71.6,5 h 58.9 C 184.3,5 197,17.8 197,71.6 v 58.9 c 0,53.8 -12.8,66.5 -66.6,66.5 H 71.5 C 17.7,197 5,184.2 5,130.4 V 71.5 C 5,17.8 17.8,5 71.6,5 Z" /></defs><use
       xlink:href="#SVGID_1_"
       overflow="visible"
       fill-rule="evenodd"
       clip-rule="evenodd"
       fill="#5181b8"
       id="use1"
       style="display:inline;fill:#5181b8;fill-opacity:1" /><clipPath
       id="SVGID_2_"><use
         xlink:href="#SVGID_1_"
         overflow="visible"
         id="use2" /></clipPath><path
       class="st0"
       d="M 0,0 H 202 V 202 H 0 Z"
       clip-path="url(#SVGID_2_)"
       id="path2"
       style="display:inline" /></g><rect
     style="display:inline;fill:#ffffff;fill-opacity:1;stroke:#000000;stroke-width:0.0762871"
     id="rect2"
     width="202.86044"
     height="202.00452"
     x="0.85367596"
     y="-0.0022561846" /><path
     id="Logo"
     class="st1"
     d="m 162.2,71.1 c 0.9,-3 0,-5.1 -4.2,-5.1 h -14 c -3.6,0 -5.2,1.9 -6.1,4 0,0 -7.1,17.4 -17.2,28.6 -3.3,3.3 -4.7,4.3 -6.5,4.3 -0.9,0 -2.2,-1 -2.2,-4 V 71.1 C 112,67.5 111,66 108,66 H 86 c -2.2,0 -3.6,1.7 -3.6,3.2 0,3.4 5,4.2 5.6,13.6 v 20.6 c 0,4.5 -0.8,5.3 -2.6,5.3 C 80.7,108.7 69.1,91.3 62.3,71.3 60.9,67.6 59.6,66 56,66 H 42 c -4,0 -4.8,1.9 -4.8,4 0,3.7 4.7,22.1 22.1,46.4 11.6,16.6 27.9,25.6 42.7,25.6 8.9,0 10,-2 10,-5.4 V 124 c 0,-4 0.8,-4.8 3.7,-4.8 2.1,0 5.6,1 13.9,9 9.5,9.5 11.1,13.8 16.4,13.8 h 14 c 4,0 6,-2 4.8,-5.9 -1.3,-3.9 -5.8,-9.6 -11.8,-16.4 -3.3,-3.9 -8.2,-8 -9.6,-10.1 -2.1,-2.7 -1.5,-3.9 0,-6.2 0,-0.1 17.1,-24.1 18.8,-32.3 z"
     style="display:inline" /><g
     style="display:inline;fill:none"
     id="g2"
     transform="matrix(0.3046006,0,0,0.3046006,38.551204,43.175268)"><g
       clip-path="url(#clip0_1542_6)"
       id="g10"><path
         d="m 122.965,379.27 c 67.687,0 122.559,-54.872 122.559,-122.559 0,-67.688 -54.872,-122.559 -122.559,-122.559 -67.6872,0 -122.55875,54.871 -122.55875,122.559 0,67.687 54.87155,122.559 122.55875,122.559 z"
         fill="#04e061"
         id="path7" /><path
         d="m 335.574,363.803 c 40.901,0 74.057,-33.157 74.057,-74.058 0,-40.901 -33.156,-74.057 -74.057,-74.057 -40.901,0 -74.058,33.156 -74.058,74.057 0,40.901 33.157,74.058 74.058,74.058 z"
         fill="#ff4053"
         id="path8" /><path
         d="m 146.404,118.175 c 25.311,0 45.829,-20.5181 45.829,-45.8284 0,-25.3103 -20.518,-45.8284 -45.829,-45.8284 -25.31,0 -45.828,20.5181 -45.828,45.8284 0,25.3103 20.518,45.8284 45.828,45.8284 z"
         fill="#965eeb"
         id="path9" /><path
         d="m 306.803,199.696 c 55.032,0 99.645,-44.613 99.645,-99.645 0,-55.0327 -44.613,-99.645238 -99.645,-99.645238 -55.033,0 -99.645,44.612538 -99.645,99.645238 0,55.032 44.612,99.645 99.645,99.645 z"
         fill="#00aaff"
         id="path10" /></g></g></svg>
