<?xml version="1.0" encoding="UTF-8" standalone="no"?>
<svg
   id="VK_Logo"
   viewBox="0 0 202 202"
   width="2500"
   height="2500"
   version="1.1"
   xml:space="preserve"
   sodipodi:docname="telegram2.svg"
   inkscape:version="1.3 (0e150ed, 2023-07-21)"
   xmlns:inkscape="http://www.inkscape.org/namespaces/inkscape"
   xmlns:sodipodi="http://sodipodi.sourceforge.net/DTD/sodipodi-0.dtd"
   xmlns="http://www.w3.org/2000/svg"
   xmlns:svg="http://www.w3.org/2000/svg"><sodipodi:namedview
     id="namedview1"
     pagecolor="#ffffff"
     bordercolor="#000000"
     borderopacity="0.25"
     inkscape:showpageshadow="2"
     inkscape:pageopacity="0.0"
     inkscape:pagecheckerboard="0"
     inkscape:deskcolor="#d1d1d1"
     inkscape:zoom="0.0944"
     inkscape:cx="1244.7034"
     inkscape:cy="1250"
     inkscape:window-width="1440"
     inkscape:window-height="449"
     inkscape:window-x="0"
     inkscape:window-y="25"
     inkscape:window-maximized="0"
     inkscape:current-layer="VK_Logo" /><defs
     id="defs2"><clipPath
       id="clip0_1542_6"><rect
         width="1494"
         height="380"
         fill="white"
         id="rect10" /></clipPath></defs><style
     id="style1">.st0{clip-path:url(#SVGID_2_);fill:#5181b8}.st1{fill-rule:evenodd;clip-rule:evenodd;fill:#fff}</style><path
     id="Logo"
     class="st1"
     d="m 162.2,71.1 c 0.9,-3 0,-5.1 -4.2,-5.1 h -14 c -3.6,0 -5.2,1.9 -6.1,4 0,0 -7.1,17.4 -17.2,28.6 -3.3,3.3 -4.7,4.3 -6.5,4.3 -0.9,0 -2.2,-1 -2.2,-4 V 71.1 C 112,67.5 111,66 108,66 H 86 c -2.2,0 -3.6,1.7 -3.6,3.2 0,3.4 5,4.2 5.6,13.6 v 20.6 c 0,4.5 -0.8,5.3 -2.6,5.3 C 80.7,108.7 69.1,91.3 62.3,71.3 60.9,67.6 59.6,66 56,66 H 42 c -4,0 -4.8,1.9 -4.8,4 0,3.7 4.7,22.1 22.1,46.4 11.6,16.6 27.9,25.6 42.7,25.6 8.9,0 10,-2 10,-5.4 V 124 c 0,-4 0.8,-4.8 3.7,-4.8 2.1,0 5.6,1 13.9,9 9.5,9.5 11.1,13.8 16.4,13.8 h 14 c 4,0 6,-2 4.8,-5.9 -1.3,-3.9 -5.8,-9.6 -11.8,-16.4 -3.3,-3.9 -8.2,-8 -9.6,-10.1 -2.1,-2.7 -1.5,-3.9 0,-6.2 0,-0.1 17.1,-24.1 18.8,-32.3 z"
     style="display:inline" /><g
     style="display:inline;fill:none"
     id="g2"
     transform="matrix(0.3046006,0,0,0.3046006,38.551204,43.175268)"><g
       clip-path="url(#clip0_1542_6)"
       id="g10"><path
         d="m 122.965,379.27 c 67.687,0 122.559,-54.872 122.559,-122.559 0,-67.688 -54.872,-122.559 -122.559,-122.559 -67.6872,0 -122.55875,54.871 -122.55875,122.559 0,67.687 54.87155,122.559 122.55875,122.559 z"
         fill="#04e061"
         id="path7" /><path
         d="m 335.574,363.803 c 40.901,0 74.057,-33.157 74.057,-74.058 0,-40.901 -33.156,-74.057 -74.057,-74.057 -40.901,0 -74.058,33.156 -74.058,74.057 0,40.901 33.157,74.058 74.058,74.058 z"
         fill="#ff4053"
         id="path8" /><path
         d="m 146.404,118.175 c 25.311,0 45.829,-20.5181 45.829,-45.8284 0,-25.3103 -20.518,-45.8284 -45.829,-45.8284 -25.31,0 -45.828,20.5181 -45.828,45.8284 0,25.3103 20.518,45.8284 45.828,45.8284 z"
         fill="#965eeb"
         id="path9" /><path
         d="m 306.803,199.696 c 55.032,0 99.645,-44.613 99.645,-99.645 0,-55.0327 -44.613,-99.645238 -99.645,-99.645238 -55.033,0 -99.645,44.612538 -99.645,99.645238 0,55.032 44.612,99.645 99.645,99.645 z"
         fill="#00aaff"
         id="path10" /></g></g><g
     id="g3"
     transform="matrix(0.0808,0,0,0.0808,18.311263,18.256587)"><path
       d="M 0,0 C 3.0233287,0.0056433 6.0466518,0.00846185 9.0699844,0.0110817 37.021039,0.04629403 64.863803,0.25987013 92.699379,3.0648232 c 2.665337,0.2669647 5.331717,0.520893 7.998471,0.7732544 91.69233,8.7731904 182.01985,29.4484504 358.32276,101.8999024 3.02281,1.48932 6.0517,2.96552 9.08203,4.43945 12.45984,6.10004 24.54072,12.76315 36.56543,19.67725 2.87971,1.64641 5.77836,3.2558 8.68164,4.86011 26.92741,14.9235 52.76378,31.82973 77.87793,49.60327 0.67998,0.47921 1.35996,0.95842 2.06055,1.45215 20.29783,14.30813 39.91293,29.37197 59.13964,45.08007 1.57291,1.28274 3.15079,2.55937 4.7295,3.83497 10.85113,8.79038 21.35332,17.98835 31.64453,27.42578 2.1978,1.99961 4.4257,3.95421 6.67578,5.89453 3.10481,2.69462 5.99972,5.53729 8.87672,8.47166 1.80157,1.77037 3.65989,3.41588 5.58007,5.05593 4.34102,3.77628 8.42325,7.77043 12.48461,11.8435 0.74894,0.74799 1.49789,1.49597 2.26952,2.26662 1.57179,1.57111 3.14234,3.14347 4.71169,4.71702 2.3834,2.38877 4.7721,4.77214 7.16137,7.15503 1.53613,1.53679 3.07195,3.07389 4.60742,4.61133 0.70436,0.70233 1.40872,1.40467 2.13442,2.12828 3.93474,3.95313 7.70083,7.99969 11.33444,12.23184 2.77272,3.19401 5.68926,6.2537 8.58974,9.33129 4.76664,5.08612 9.47255,10.19863 14,15.5 0.92154,1.06799 1.84345,2.13567 2.76562,3.20312 6.19005,7.17745 12.26498,14.4343 18.23438,21.79688 1.04246,1.27254 2.08547,2.54465 3.1289,3.8164 6.02291,7.3536 11.91376,14.76622 17.55713,22.41748 1.53201,2.0592 3.0844,4.10222 4.63819,6.14502 12.78265,16.84329 24.91474,34.15265 36.50586,51.83741 0.79043,1.20511 1.58347,2.40852 2.3789,3.61035 14.62043,22.09703 28.10755,44.91679 40.79102,68.17334 0.92426,1.69407 0.92426,1.69407 1.86719,3.42236 41.14129,75.56558 72.18586,155.90301 118.44527,381.89014 0.076,0.71269 0.1511,1.42538 0.229,2.15967 0.5394,5.17153 1.0066,10.348 1.4585,15.52783 0.082,0.93304 0.164,1.86608 0.2485,2.82739 1.4981,17.42579 2.0771,34.72625 2.0875,52.21167 0.01,2.62414 0.013,5.24827 0.02,7.87241 0.013,5.47077 0.016,10.94147 0.014,16.41227 -10e-4,5.4949 0.013,10.9895 0.041,16.4844 0.455,91.0395 -11.4244,180.9807 -48.41166,310.1919 -0.26942,0.8312 -0.53883,1.6624 -0.81641,2.5188 -21.57796,66.4005 -49.78804,131.3454 -85.40137,191.4563 -1.78115,3.023 -3.53921,6.0584 -5.29003,9.0991 -19.62312,34.0489 -41.70413,66.6506 -65.49219,97.9258 -0.42491,0.5613 -0.84982,1.1227 -1.2876,1.7011 -6.05965,8.0027 -12.33368,15.8125 -18.68506,23.584 -2.39024,2.9258 -4.74812,5.875 -7.08984,8.8399 -7.31133,9.1623 -15.05796,17.9775 -22.9336,26.6562 -1.81702,2.0118 -3.60335,4.0454 -5.3789,6.0938 -4.28363,4.9109 -8.69566,9.7031 -13.11817,14.4887 -1.45461,1.5796 -2.89925,3.1677 -4.34277,4.7574 -8.26459,9.0374 -16.88953,17.7124 -25.53906,26.3789 -0.61173,0.6143 -1.22346,1.2286 -1.85373,1.8615 -11.75157,11.7908 -11.75157,11.7908 -17.96903,17.0857 -3.37093,2.9043 -6.57258,5.9934 -9.80224,9.0528 -5.23261,4.9566 -10.54392,9.7901 -16,14.5 -0.87326,0.7565 -0.87326,0.7565 -1.76416,1.5283 -7.64775,6.6132 -15.38226,13.1036 -23.23584,19.4717 -1.21398,0.9955 -2.42749,1.9916 -3.64063,2.9882 -9.62378,7.8898 -19.40838,15.5392 -29.35937,23.0118 -0.73557,0.5526 -1.47114,1.1053 -2.22901,1.6748 -43.2554,32.4018 -89.0454,61.0034 -136.77099,86.3252 -1.04173,0.5551 -2.08345,1.1102 -3.15674,1.6821 -74.53258,39.6099 -154.83519,69.2977 -362.90576,110.1304 -1.35749,0.1491 -1.35749,0.1491 -2.7424,0.3013 -25.018726,2.7146 -49.946752,4.2069 -75.113071,4.2221 -2.600286,0.01 -5.200572,0.013 -7.800857,0.02 -5.417711,0.013 -10.835374,0.016 -16.253098,0.015 -5.439574,0 -10.8788583,0.013 -16.318359,0.041 -64.043371,0.3232 -126.810045,-5.2978 -189.709715,-17.4116 -0.78232,-0.1507 -1.56464,-0.3013 -2.37067,-0.4565 -65.48271,-12.6799 -130.03518,-31.9119 -191.62933,-57.5435 -0.62272,-0.259 -1.24544,-0.5179 -1.88703,-0.7846 -41.16309,-17.1581 -81.65662,-36.6073 -120.11297,-59.2154 -0.83507,-0.4896 -0.83507,-0.4896 -1.68701,-0.9891 -25.08415,-14.7101 -49.43411,-30.4077 -73.31299,-47.0109 -0.71946,-0.4981 -1.43892,-0.9962 -2.18018,-1.5093 -10.17855,-7.0555 -20.08999,-14.4072 -29.87988,-21.9917 -1.77234,-1.3695 -3.55124,-2.7297 -5.33447,-4.085 -8.06607,-6.1465 -15.94368,-12.5062 -23.78955,-18.9302 -1.57892,-1.2902 -3.16371,-2.5732 -4.74952,-3.8549 -11.05705,-8.9541 -21.76287,-18.315 -32.1875,-27.9961 -2.24011,-2.0487 -4.5002,-4.0578 -6.78906,-6.0508 -13.11877,-11.4468 -25.39915,-23.7873 -37.71484,-36.082 -0.70609,-0.7035 -1.41217,-1.407 -2.13965,-2.1318 -2.05279,-2.0469 -4.10172,-4.0975 -6.14941,-6.1495 -0.60994,-0.608 -1.21988,-1.2159 -1.8483,-1.8423 -3.69838,-3.718 -7.203,-7.5545 -10.61371,-11.5384 -1.64109,-1.8575 -3.35458,-3.6031 -5.12393,-5.338 -3.71183,-3.6627 -7.11067,-7.5394 -10.5,-11.5 -0.89572,-1.0431 -1.79156,-2.0861 -2.6875,-3.1289 -2.04949,-2.3871 -4.09586,-4.7769 -6.14063,-7.168 -2.04558,-2.3911 -4.09744,-4.7765 -6.15625,-7.1563 -12.19595,-14.1149 -23.77592,-28.6614 -35.01562,-43.5468 -0.50386,-0.665 -1.00773,-1.33 -1.52686,-2.0152 -3.51667,-4.6427 -7.00638,-9.3047 -10.47314,-13.9848 -0.757,-1.0212 -0.757,-1.0212 -1.5293,-2.063 -9.60947,-13.0116 -18.59204,-26.4192 -27.4707,-39.937 -0.7935,-1.2059 -0.7935,-1.2059 -1.60303,-2.4361 -16.7063,-25.4337 -32.06952,-51.7229 -46.39697,-78.5639 -0.47083,-0.8785 -0.94166,-1.757 -1.42676,-2.6622 -40.68308,-76.1239 -70.79865,-157.2876 -114.31608,-384.6455 -0.2444,-2.559 -0.4999,-5.1166 -0.7577,-7.6743 -5.6648,-57.4315 -5.5383,-118.07545 0.2473,-175.48978 0.267,-2.66534 0.5209,-5.33172 0.7733,-7.99848 8.7378,-91.32337 29.23093,-181.38319 84.47994,-321.52978 0.47051,-1.05671 0.94101,-2.11342 1.42578,-3.20215 12.32811,-27.58198 25.6781,-54.9263 40.94678,-81.00488 1.7984,-3.08637 3.56785,-6.18831 5.33447,-9.29297 17.38801,-30.50036 36.62351,-60.1102 57.29297,-88.5 0.82588,-1.13816 0.82588,-1.13816 1.66846,-2.29932 11.16131,-15.35411 22.85624,-30.20366 34.86376,-44.90088 1.28274,-1.5729 2.55937,-3.15078 3.83497,-4.72949 8.72324,-10.76825 17.83474,-21.21376 27.21875,-31.41016 1.90903,-2.10364 3.78236,-4.22715 5.64477,-6.37158 11.34237,-12.97118 23.50238,-25.18309 35.69678,-37.34643 2.53512,-2.5297 5.06475,-5.06478 7.59399,-7.60035 1.63705,-1.63638 3.27441,-3.27246 4.91211,-4.9082 0.74286,-0.74488 1.48572,-1.48976 2.25109,-2.25722 4.0517,-4.03376 8.18942,-7.90476 12.52888,-11.62805 2.94714,-2.55432 5.76256,-5.24752 8.59894,-7.92332 5.04316,-4.72373 10.21441,-9.19334 15.60937,-13.51563 2.60239,-2.12922 5.09388,-4.34387 7.57813,-6.60937 5.17515,-4.70468 10.56203,-9.10437 16,-13.5 1.2312,-1.01083 2.46162,-2.0226 3.6914,-3.03516 8.55556,-7.02835 17.25875,-13.80621 26.16651,-20.38183 2.27435,-1.68076 4.54235,-3.36987 6.81006,-5.05957 9.96169,-7.40547 20.03325,-14.59553 30.33203,-21.52344 1.08249,-0.73026 2.16498,-1.46051 3.28027,-2.21289 37.58876,-25.34077 76.39579,-48.06115 116.71973,-68.78711 0.98887,-0.51144 1.97774,-1.02287 2.99658,-1.54981 C -380.61716,69.030961 -301.1859,41.858586 -99.772362,4.568058 -98.81619,4.466917 -97.860017,4.3657759 -96.87487,4.26157 -64.590151,0.88384822 -32.439673,-0.06150964 0,0 Z"
       fill="#26a4e3"
       transform="translate(1020.7724,-0.31805801)"
       id="path1" /><path
       d="m 0,0 c 11.560187,10.65013 14.479894,26.387801 15.163574,41.470459 0.627806,21.303231 -1.241545,42.059971 -3.810791,63.181521 -0.343033,2.84026 -0.678057,5.68136 -1.010986,8.52282 -2.7814247,23.72735 -5.8281848,47.40343 -9.2744142,71.04346 -1.4446793,9.91212 -2.7976573,19.82596 -3.9995117,29.771 -0.9436076,7.74737 -2.0082883,15.47531 -3.1069336,23.20215 -0.162583,1.15161 -0.325166,2.30323 -0.4926758,3.48974 -0.7378136,5.13768 -1.524896,10.25196 -2.4799805,15.35401 -0.9922892,5.32289 -1.6863732,10.65779 -2.3398442,16.03125 -1.143884,9.07629 -2.531186,18.08798 -4.071533,27.10473 -1.470567,8.6231 -2.808294,17.26305 -4.121338,25.91138 -0.940662,6.17234 -1.9333,12.33127 -2.994628,18.48389 -1.172427,6.81173 -2.07929,13.64209 -2.9375,20.5 -0.94989,7.58046 -2.088768,15.01245 -3.753907,22.47265 -0.63059,3.2454 -1.127088,6.45331 -1.578125,9.72656 -1.372765,9.82792 -3.058685,19.6029 -4.70758,29.38758 -3.280629,19.47854 -6.485396,38.96763 -9.585388,58.47571 -5.020436,31.56528 -10.302844,63.08407 -15.72963,94.58183 -0.927179,5.3868 -1.844623,10.77521 -2.758652,16.16426 -6.069862,35.76737 -12.347116,71.49803 -18.877197,107.18433 -2.325766,12.71149 -4.58976,25.43258 -6.814697,38.16211 -20.896742,119.51514 -20.896742,119.51514 -45.694822,148.15747 -0.76313,1.03125 -1.52625,2.0625 -2.3125,3.125 -8.68794,9.29407 -20.55346,16.09708 -33.38452,17.08203 -27.2848,0.87596 -49.54106,-4.51374 -73.59253,-17.29883 -1.50927,-0.80138 -3.02905,-1.58292 -4.5503,-2.36133 -20.80228,-10.88601 -39.79671,-25.55 -58.8789,-39.12671 -12.12261,-8.60267 -24.44502,-16.9187 -36.81836,-25.15503 -2.09556,-1.39524 -4.18945,-2.79297 -6.2832,-4.19092 -6.25088,-4.16805 -12.5162,-8.3051 -18.85157,-12.34375 -9.77666,-6.24072 -19.34776,-12.79333 -28.95312,-19.29296 -3.76263,-2.54356 -7.52582,-5.08627 -11.28906,-7.62891 -0.89636,-0.60587 -1.79271,-1.21175 -2.71622,-1.83598 -5.58781,-3.77525 -11.19007,-7.5273 -16.80576,-11.26094 -4.33428,-2.89351 -8.63674,-5.83329 -12.93896,-8.77417 -1.93229,-1.31902 -3.86458,-2.63803 -5.79688,-3.95704 -0.97131,-0.66338 -1.94261,-1.32676 -2.94336,-2.01025 -24.82967,-16.95797 -49.71005,-33.83981 -74.63476,-50.65771 -1.39831,-0.94382 -1.39831,-0.94382 -2.82486,-1.90671 -9.74672,-6.57778 -19.50343,-13.13793 -29.3143,-19.61966 -12.81506,-8.47072 -24.8988,-17.22896 -36.11084,-27.78613 -0.95326,-0.87399 -0.95326,-0.87399 -1.92578,-1.76563 -9.68109,-9.18738 -18.18032,-22.19806 -19.27735,-35.74219 -0.4092,-22.84724 14.28187,-39.81071 29.20313,-55.49218 4.4958,-4.63731 9.06089,-9.20551 13.63501,-13.76538 2.06359,-2.0582 4.12172,-4.12173 6.17944,-6.1858 1.33627,-1.3356 2.67285,-2.6709 4.00977,-4.00586 0.60229,-0.60431 1.20457,-1.20862 1.82512,-1.83125 3.70873,-3.68874 7.54881,-7.1663 11.50454,-10.58798 2.41409,-2.12328 4.68362,-4.36547 6.93987,-6.65498 0.88558,-0.89332 1.77117,-1.78664 2.68359,-2.70704 0.89848,-0.91136 1.79695,-1.82273 2.72266,-2.76171 5.44239,-5.52048 10.85895,-10.98243 16.77734,-15.9961 1.82696,-1.59496 3.52325,-3.27408 5.22266,-5.0039 2.32059,-2.35974 4.69705,-4.58122 7.20703,-6.73829 4.26545,-3.70887 8.38069,-7.55902 12.48047,-11.44921 5.09952,-4.81989 10.20906,-9.62632 15.375,-14.375 4.83981,-4.45038 9.64526,-8.93594 14.4375,-13.4375 4.8138,-4.52154 9.64027,-9.02785 14.5,-13.5 11.12495,-10.24213 22.11527,-20.62955 33.12158,-30.99878 3.58102,-3.37282 7.16657,-6.7406 10.76123,-10.09888 0.71221,-0.6658 1.42441,-1.3316 2.1582,-2.01758 1.33888,-1.25104 2.67865,-2.50112 4.01953,-3.75 3.68206,-3.4415 7.28149,-6.94661 10.81348,-10.54223 1.68933,-1.65458 3.4459,-3.19077 5.25098,-4.71753 4.38341,-3.76939 8.41797,-7.86029 12.45556,-11.99268 2.82516,-2.87068 5.70789,-5.60033 8.76319,-8.22607 4.61913,-3.99147 8.87826,-8.30526 13.15625,-12.65625 1.51827,-1.54419 3.03908,-3.08589 4.5625,-4.625 0.66129,-0.67289 1.32258,-1.34579 2.0039,-2.03907 1.94221,-1.86426 3.90924,-3.61179 5.95288,-5.35962 5.80431,-5.0463 11.17991,-10.53145 16.60962,-15.97241 1.15993,-1.15925 2.32,-2.31835 3.48021,-3.47731 2.4196,-2.41813 4.83741,-4.83804 7.25392,-7.25926 3.07841,-3.0841 6.16128,-6.16368 9.24552,-9.24194 2.3929,-2.38926 4.78338,-4.78093 7.17317,-7.1733 1.13502,-1.13569 2.27078,-2.27065 3.40731,-3.40483 5.98456,-5.9749 11.82977,-12.00027 17.31097,-18.44726 1.538,-1.69084 3.0791,-3.37888 4.625,-5.0625 6.05966,-6.72148 10.79012,-12.13501 10.65234,-21.51954 -0.60293,-5.25655 -2.66029,-9.12432 -6.77734,-12.41796 -10.38838,-2.96811 -18.887,-0.59267 -28.13477,4.43139 -2.7751,1.62634 -5.51145,3.30323 -8.24023,5.00611 -1.49721,0.92317 -1.49721,0.92317 -3.02466,1.86499 -8.05062,4.98705 -16.01161,10.1074 -23.92725,15.30542 -3.99598,2.62312 -8.00084,5.23208 -12.01143,7.83281 -10.9143,7.07772 -21.78672,14.21796 -32.64531,21.38081 -2.84412,1.87604 -5.68898,3.75095 -8.53393,5.62573 -7.83544,5.16524 -15.66852,10.33346 -23.4707,15.54883 -5.98142,3.99786 -11.9897,7.95401 -18.00391,11.90234 -1.87891,1.23437 -3.75782,2.46875 -5.63672,3.70313 -2.87033,1.88553 -5.74119,3.77023 -8.61377,5.65234 -9.35264,6.12953 -18.68363,12.26636 -27.78467,18.76563 -8.9393,6.38377 -18.10698,12.40451 -27.29739,18.41894 -4.89922,3.20713 -9.79128,6.42513 -14.68307,9.64356 -0.94314,0.62041 -1.88628,1.24082 -2.85799,1.88003 -7.06769,4.65394 -14.08697,9.36958 -21.06096,14.16294 -9.63249,6.61837 -19.32183,13.15211 -29.01074,19.6875 -0.92299,0.62278 -1.84598,1.24557 -2.79694,1.88723 -14.36208,9.68853 -28.77014,19.30618 -43.19812,28.89618 -9.54428,6.34702 -19.03439,12.74814 -28.38531,19.37821 -7.43624,5.25371 -15.01685,10.28695 -22.60227,15.32126 -8.47743,5.62645 -16.93407,11.28211 -25.36502,16.97805 -1.40346,0.94803 -1.40346,0.94803 -2.83528,1.91521 -3.73663,2.52478 -7.47287,5.05012 -11.20674,7.57896 -9.61589,6.51253 -19.25617,12.98182 -28.98923,19.31833 -1.21183,0.78981 -1.21183,0.78981 -2.44815,1.59557 -28.45417,18.44595 -60.50702,32.42818 -94.79794,32.5685 -1.20205,0.0206 -2.4041,0.0412 -3.64258,0.0625 -20.38894,0.0846 -40.10429,-4.06392 -59.85718,-8.76343 -3.62922,-0.86252 -7.26247,-1.70608 -10.89673,-2.54712 -11.97793,-2.79676 -23.80824,-5.83673 -35.55493,-9.48291 -4.41895,-1.36572 -8.86593,-2.6038 -13.32738,-3.82245 -16.75453,-4.58267 -33.30387,-9.79971 -49.86183,-15.03912 -3.37027,-1.06626 -6.74201,-2.12769 -10.11521,-3.18457 -62.3369,-19.53283 -62.3369,-19.53283 -79.6817,-33.4729 -0.6548,-0.51821 -1.3097,-1.03641 -1.9843,-1.57032 -6.109,-5.40407 -9.1707,-12.4816 -10.5313,-20.44922 -0.5531,-9.59132 3.0308,-16.77301 9.0586,-24.05078 7.1233,-7.75084 15.4678,-13.54949 24.457,-18.92968 1.0246,-0.6144 1.0246,-0.6144 2.0699,-1.24121 18.6709,-11.04987 38.7886,-19.17007 58.7036,-27.66114 11.75641,-5.01615 23.46643,-10.13347 35.16404,-15.28515 11.22985,-4.94409 22.46352,-9.87375 33.75,-14.6875 11.9399,-5.09286 23.84768,-10.25751 35.75,-15.4375 0.97125,-0.42267 1.94249,-0.84533 2.94317,-1.2808 4.049,-1.76203 8.098,-3.52406 12.14695,-5.28621 11.84132,-5.1527 23.68797,-10.29314 35.53488,-15.43299 1.09795,-0.47637 2.1959,-0.95274 3.32712,-1.44355 4.47368,-1.941 8.94737,-3.88199 13.42109,-5.8229 8.01016,-3.47527 16.01976,-6.9518 24.02913,-10.42887 26.09326,-11.32731 52.1937,-22.6377 78.30664,-33.91955 5.11804,-2.21125 10.23587,-4.42299 15.35352,-6.63513 0.73813,-0.31903 1.47626,-0.63805 2.23675,-0.96674 10.0528,-4.34538 20.10101,-8.70124 30.14606,-13.06451 22.58147,-9.80853 45.16677,-19.60578 67.8058,-29.28078 11.58599,-4.95142 23.16737,-9.91361 34.74889,-14.87547 1.20829,-0.51759 2.41659,-1.03518 3.6615,-1.56845 14.94308,-6.40174 29.87758,-12.8227 44.79754,-19.27814 37.92025,-16.40601 75.96822,-32.50412 114.10346,-48.40341 1.98698,-0.82861 3.97396,-1.65723 5.96094,-2.48584 11.19367,-4.66755 22.38896,-9.33123 33.58517,-13.99271 6.04076,-2.51541 12.08001,-5.03443 18.11795,-7.55661 19.01402,-7.940913 38.05566,-15.812097 57.12933,-23.608704 4.76555,-1.947988 9.53008,-3.898407 14.29303,-5.852722 153.22702,-62.8637456 153.22702,-62.8637456 200.913578,-75.5034177 0.797929,-0.213501 1.595859,-0.427002 2.417968,-0.6469727 C -56.269369,-13.508381 -23.757796,-19.485149 0,0 Z"
       fill="#fefefe"
       transform="translate(1483.9766,628.62109)"
       id="path2-0" /></g></svg>
