<?xml version="1.0" encoding="UTF-8" standalone="no"?>
<svg
   id="VK_Logo"
   viewBox="0 0 202 202"
   width="2500"
   height="2500"
   version="1.1"
   sodipodi:docname="vk2.svg"
   inkscape:version="1.3 (0e150ed, 2023-07-21)"
   xmlns:inkscape="http://www.inkscape.org/namespaces/inkscape"
   xmlns:sodipodi="http://sodipodi.sourceforge.net/DTD/sodipodi-0.dtd"
   xmlns="http://www.w3.org/2000/svg"
   xmlns:svg="http://www.w3.org/2000/svg">
  <sodipodi:namedview
     id="namedview1"
     pagecolor="#ffffff"
     bordercolor="#000000"
     borderopacity="0.25"
     inkscape:showpageshadow="2"
     inkscape:pageopacity="0.0"
     inkscape:pagecheckerboard="0"
     inkscape:deskcolor="#d1d1d1"
     inkscape:zoom="0.0944"
     inkscape:cx="1255.2966"
     inkscape:cy="1244.7034"
     inkscape:window-width="1440"
     inkscape:window-height="626"
     inkscape:window-x="0"
     inkscape:window-y="25"
     inkscape:window-maximized="0"
     inkscape:current-layer="VK_Logo" />
  <defs
     id="defs2" />
  <style
     id="style1">.st0{clip-path:url(#SVGID_2_);fill:#5181b8}.st1{fill-rule:evenodd;clip-rule:evenodd;fill:#fff}</style>
  <path
     id="Logo"
     class="st1"
     d="m 164.76119,66.626019 c 0.94033,-3.134406 0,-5.328489 -4.38816,-5.328489 H 145.7458 c -3.76128,0 -5.43296,1.985124 -6.37328,4.179207 0,0 -7.4181,18.179552 -17.9706,29.881335 -3.44785,3.447842 -4.91057,4.492642 -6.79121,4.492642 -0.94032,0 -2.29856,-1.0448 -2.29856,-4.179207 V 66.626019 c 0,-3.761286 -1.0448,-5.328489 -4.17921,-5.328489 H 85.147295 c -2.298564,0 -3.761287,1.776163 -3.761287,3.343366 0,3.552326 5.224009,4.388167 5.850892,14.209305 v 21.522919 c 0,4.70161 -0.835843,5.53744 -2.716487,5.53744 -4.910568,0 -17.030269,-18.179544 -24.134922,-39.07558 -1.462722,-3.865767 -2.820964,-5.53745 -6.582251,-5.53745 H 39.176014 c -4.179207,0 -5.015048,1.985124 -5.015048,4.179207 0,3.865767 4.910568,23.090121 23.09012,48.478803 12.119702,17.34371 29.149971,26.74693 44.613034,26.74693 9.29875,0 10.44803,-2.08961 10.44803,-5.64193 v -13.16451 c 0,-4.1792 0.83584,-5.01505 3.86576,-5.01505 2.19408,0 5.85089,1.0448 14.52275,9.40323 9.92561,9.92561 11.5973,14.41826 17.13475,14.41826 h 14.62723 c 4.1792,0 6.2688,-2.08961 5.01504,-6.16434 -1.35824,-4.07472 -6.05985,-10.03009 -12.32866,-17.13475 -3.44785,-4.07472 -8.56738,-8.35841 -10.0301,-10.55249 -2.19408,-2.82097 -1.5672,-4.07472 0,-6.47777 0,-0.10449 17.86612,-25.179725 19.64227,-33.747101 z"
     style="display:inline;fill:#5181b8;fill-opacity:1;stroke-width:1.0448" />
</svg>
