<?xml version="1.0" encoding="UTF-8" standalone="no"?>
<!-- Generator: Adobe Illustrator 27.5.0, SVG Export Plug-In . SVG Version: 6.00 Build 0)  -->

<svg
   version="1.1"
   x="0px"
   y="0px"
   viewBox="0 0 120 120"
   xml:space="preserve"
   id="svg59"
   sodipodi:docname="favicon.svg"
   width="120"
   height="120"
   inkscape:version="1.3 (0e150ed, 2023-07-21)"
   xmlns:inkscape="http://www.inkscape.org/namespaces/inkscape"
   xmlns:sodipodi="http://sodipodi.sourceforge.net/DTD/sodipodi-0.dtd"
   xmlns="http://www.w3.org/2000/svg"
   xmlns:svg="http://www.w3.org/2000/svg"><defs
   id="defs59">&#10;	&#10;	&#10;	&#10;	&#10;	&#10;	&#10;</defs><sodipodi:namedview
   id="namedview59"
   pagecolor="#ffffff"
   bordercolor="#000000"
   borderopacity="0.25"
   inkscape:showpageshadow="2"
   inkscape:pageopacity="0.0"
   inkscape:pagecheckerboard="true"
   inkscape:deskcolor="#d1d1d1"
   inkscape:zoom="1.3350176"
   inkscape:cx="107.48922"
   inkscape:cy="55.804508"
   inkscape:window-width="1440"
   inkscape:window-height="900"
   inkscape:window-x="0"
   inkscape:window-y="0"
   inkscape:window-maximized="0"
   inkscape:current-layer="svg59" />&#10;<g
   id="BACKGROUND">&#10;</g>&#10;<g
   id="g12"
   transform="translate(508.47457,-288.13559)">&#10;		<g
   id="g2">&#10;			&#10;				<text
   transform="translate(298.7568,232.5725)"
   style="font-size:25.9279px;font-family:Lato-Heavy;letter-spacing:1;fill:#a8cbe5"
   id="text1">HEALTH</text>&#10;			&#10;				<text
   transform="translate(322.2656,208.2529)"
   style="font-size:12.3774px;font-family:Lato-Medium;letter-spacing:2;fill:#2f84af"
   id="text2">MENTAL</text>&#10;		</g>&#10;		<g
   id="g11">&#10;			<path
   style="fill:#a8cbe5"
   d="m 355.546,42.096 c 5.851,-0.615 11.72,-0.726 17.304,-0.462 8.859,0.418 17.336,0.467 25.012,5.676 6.893,4.678 10.024,13.696 6.993,21.53 -1.601,4.139 -4.59,7.363 -5.379,11.842 -0.833,4.728 0.033,9.556 -0.048,14.313 -0.03,1.759 1.708,2.929 3.001,4.163 2.504,2.391 4.855,4.935 7.317,7.368 1.058,1.046 2.252,1.535 2.029,3.184 -0.499,3.688 -4.317,3.855 -6.502,5.98 -1.568,1.526 -1.738,3.504 -0.901,5.476 0.57,1.343 1.234,2.883 0.587,4.191 -0.612,1.238 -2.228,1.816 -2.636,3.135 -0.37,1.197 0.424,2.522 0.063,3.723 -0.612,2.037 -3.445,1.99 -4.473,3.498 -1.193,1.749 -1.8,4.507 -1.944,6.601 -0.421,6.141 -3.667,8.888 -9.518,8.142 -3.092,-0.394 -6.08,-1.675 -9.091,-2.63 -5.812,-1.843 -11.702,-2.449 -11.471,5.213 0.193,6.413 -0.07,12.828 0.039,19.242 0.105,6.231 3.666,14.931 -5.84,14.877 -5.392,-0.031 -30.771,-0.985 -32.115,-5.079 -0.265,-0.809 -0.052,-1.688 0.163,-2.511 1.919,-7.369 3.837,-14.739 5.756,-22.108 0.598,-2.297 2.794,-6.409 0.506,-8.315 -1.973,-1.644 -4.451,0.171 -6.535,0.712 -2.532,0.658 -5.174,0.755 -7.777,0.764 -17.485,0.062 -22.705,-7.111 -26.457,-24.018 -1.48,-6.668 2.118,-12.296 7.431,-16.281 2.032,-1.523 4.491,-2.359 6.657,-3.659 2.554,-1.534 3.059,-3.083 3.198,-6.07 0.243,-5.211 -2.026,-10.277 -2.499,-15.317 -0.45,-4.791 0.211,-9.654 1.762,-14.201 3.209,-9.408 10.191,-17.406 19.086,-21.844 7.938,-3.958 17.088,-6.169 26.282,-7.135 z"
   id="path2" />&#10;			<g
   id="g10">&#10;				<path
   style="fill:none;stroke:#2f84af;stroke-width:1.5;stroke-linecap:round;stroke-linejoin:round;stroke-miterlimit:10"
   d="m 372.877,185.379 c -1.27,-8.803 -1.914,-17.902 -2.13,-21.552 -0.666,-11.274 2.168,-13.152 12.796,-9.782 3.304,1.048 4.665,2 8.058,2.433 6.419,0.818 9.98,-2.195 10.442,-8.933 0.197,-2.873 1.601,-8.905 4.351,-10.583 0.885,-0.54 1.877,-0.887 2.766,-1.421 0.272,-0.163 0.543,-0.353 0.699,-0.629 0.142,-0.251 0.176,-0.548 0.187,-0.835 0.062,-1.584 -0.438,-3.315 0.386,-4.67 0.763,-1.254 2.482,-1.807 2.956,-3.196 0.188,-0.549 0.143,-1.151 0.04,-1.722 -0.305,-1.693 -1.512,-3.019 -1.537,-4.725 -0.018,-1.217 0.288,-2.395 1.063,-3.351 1.184,-1.46 2.896,-1.785 4.33,-2.8 1.244,-0.881 2.856,-2.443 3.162,-3.996 0.311,-1.581 -1.057,-2.607 -2.019,-3.557 -2.706,-2.675 -5.29,-5.471 -8.043,-8.099 -1.418,-1.354 -3.325,-2.637 -3.292,-4.567 0.101,-5.952 -2.359,-15.26 1.954,-20.19 4.002,-4.575 5.924,-9.673 5.519,-15.996 -0.414,-6.478 -3.912,-12.548 -9.192,-16.131 -19.981,-13.559 -54.907,-11.772 -69.526,9.049 -5.232,7.451 -7.191,16.87 -6.678,25.959 0.429,7.604 2.823,15.595 8.745,20.385 7.244,5.859 18.139,5.334 26.354,0.94 5.152,-2.756 9.654,-6.995 11.94,-12.372 3.444,-8.1 3.129,-18.994 -5.484,-23.897 -9.885,-5.627 -21.404,3.765 -22.872,13.524 -2.336,15.53 8.655,30.553 6.884,46.113 -0.588,5.169 -3.009,9.938 -5.639,14.426"
   id="path3" />&#10;				<g
   id="g9">&#10;					<g
   id="g6">&#10;						<g
   id="g5">&#10;							&#10;								<path
   style="fill:none;stroke:#2f84af;stroke-width:1.5;stroke-linecap:round;stroke-linejoin:round;stroke-miterlimit:10"
   d="m 364.994,111.411 c 2.803,-0.812 5.949,-0.353 8.403,1.226 0.695,0.447 -2.337,3.45 -6.276,4.572 -2.417,0.689 -5.956,0.353 -8.135,-0.945 1.019,-2.362 3.577,-4.148 6.008,-4.853 z"
   id="path4" />&#10;							&#10;								<path
   style="fill:none;stroke:#2f84af;stroke-width:1.5;stroke-linecap:round;stroke-linejoin:round;stroke-miterlimit:10"
   d="m 365.025,124.674 c 2.894,0.375 5.595,2.051 7.215,4.478 0.459,0.687 -3.52,2.23 -7.579,1.688 -2.491,-0.333 -5.602,-2.054 -7.082,-4.113 1.877,-1.761 4.936,-2.378 7.446,-2.053 z"
   id="path5" />&#10;						</g>&#10;					</g>&#10;					<g
   id="g8">&#10;						<g
   id="g7">&#10;							&#10;								<path
   style="fill:none;stroke:#2f84af;stroke-width:1.5;stroke-linecap:round;stroke-linejoin:round;stroke-miterlimit:10"
   d="m 346.396,110.929 c -2.335,-1.751 -5.439,-2.435 -8.293,-1.827 -0.808,0.172 0.965,4.054 4.251,6.498 2.017,1.5 5.445,2.438 7.943,1.995 -0.116,-2.571 -1.876,-5.147 -3.901,-6.666 z"
   id="path6" />&#10;							&#10;								<path
   style="fill:none;stroke:#2f84af;stroke-width:1.5;stroke-linecap:round;stroke-linejoin:round;stroke-miterlimit:10"
   d="m 341.673,123.322 c -2.84,-0.674 -5.959,-0.062 -8.333,1.635 -0.672,0.48 2.503,3.332 6.492,4.261 2.448,0.57 5.966,0.061 8.079,-1.341 -1.132,-2.311 -3.774,-3.97 -6.238,-4.555 z"
   id="path7" />&#10;						</g>&#10;					</g>&#10;				</g>&#10;			</g>&#10;		</g>&#10;	</g><g
   id="g18"
   transform="translate(508.47457,-288.13559)">&#10;		<g
   id="g13">&#10;			&#10;				<text
   transform="translate(83.7568,231.9059)"
   style="font-size:25.9279px;font-family:Lato-Heavy;letter-spacing:1;fill:#d0dbbb"
   id="text12">HEALTH</text>&#10;			&#10;				<text
   transform="translate(107.2656,207.5862)"
   style="font-size:12.3774px;font-family:Lato-Medium;letter-spacing:2;fill:#798d5a"
   id="text13">MENTAL</text>&#10;		</g>&#10;		<g
   id="g17">&#10;			<g
   id="g15">&#10;				<g
   id="g14">&#10;					<path
   style="fill:#d0dbbb"
   d="m 129.867,183.534 c 12.975,1.816 33.335,2.134 43.401,-7.96 3.127,-3.136 0.353,-9.841 -0.391,-13.611 -1.034,-5.241 -2.705,-23.973 -3.347,-29.283 -0.317,-2.622 -0.924,-5.235 -0.482,-7.906 0.853,-5.151 3.556,-9.273 7.242,-12.808 2.404,-2.306 4.562,-4.811 6.446,-7.547 7.101,-10.313 10.8,-21.523 8.681,-34.157 -1.195,-7.13 -3.802,-13.751 -8.471,-19.328 -6.089,-7.272 -14.179,-11.423 -23.186,-13.87 -8.129,-2.208 -16.423,-2.849 -24.825,-2.219 -9.199,0.69 -17.907,3.004 -26.026,7.478 -15.53,8.557 -20.822,26.274 -16.081,39.597 1.176,3.304 1.236,6.709 -0.686,9.858 -2.394,3.923 -4.844,7.811 -7.276,11.71 -0.561,0.898 -1.189,1.752 -1.563,2.761 -0.859,2.32 -0.12,3.91 2.253,4.605 1.611,0.472 3.254,0.884 4.939,0.924 1.162,0.028 1.345,0.525 1.055,1.507 -0.375,1.271 -0.691,2.558 -1.044,3.835 -0.469,1.7 -0.013,2.721 1.603,3.412 0.696,0.298 1.377,0.596 1.933,1.125 0.572,0.545 0.579,0.959 -0.122,1.477 -2.633,1.945 -2.43,4.121 0.484,5.677 1.983,1.059 2.928,3.033 2.483,5.348 -0.183,0.951 -0.509,1.874 -0.773,2.809 -1.355,4.813 1.034,8.587 5.977,9.166 4.472,0.523 8.822,-0.091 12.91,-2.087 2.607,-1.273 3.747,-0.762 4.243,2.112 0.761,4.404 2.088,22.318 2.679,26.749 0.424,3.175 0.232,7.565 3.491,9.302 1.252,0.67 2.791,1.091 4.453,1.324 z"
   id="path13" />&#10;				</g>&#10;			</g>&#10;			<g
   id="g16">&#10;				<path
   style="fill:none;stroke:#7e8c5d;stroke-width:1.5;stroke-linecap:round;stroke-linejoin:round;stroke-miterlimit:10"
   d="m 142.463,129.523 c -4.859,-3.184 -9.96,-6.642 -12.366,-11.929 -2.128,-4.677 -1.799,-10.098 -0.833,-15.145 1.082,-5.656 2.912,-11.168 5.427,-16.349 2.07,-4.263 4.622,-8.358 5.776,-12.954 1.857,-7.397 -1.08,-15.132 -9.203,-16.162 -6.2,-0.785 -10.51,1.742 -14.627,6.039 -4.199,4.382 -4.74,10.746 -3.793,16.664 0.919,5.75 4.123,11.212 9.023,14.36 13.499,8.671 30.937,-0.4 39.091,-12.096 6.955,-9.975 6.504,-20.76 0.725,-31.207 -3.458,-6.251 -9.472,-10.867 -16.14,-13.431 -14.777,-5.682 -32.424,-2.576 -45.997,4.904 -16.109,8.877 -21.6,27.257 -16.681,41.077 1.22,3.428 1.282,6.96 -0.712,10.227 -2.484,4.069 -5.024,8.103 -7.548,12.148 -0.581,0.932 -1.233,1.817 -1.621,2.864 -0.891,2.407 -0.125,4.056 2.338,4.777 1.671,0.49 3.375,0.917 5.123,0.959 1.206,0.029 1.395,0.545 1.094,1.564 -0.389,1.318 -0.717,2.654 -1.083,3.979 -0.486,1.763 -0.013,2.823 1.663,3.54 0.722,0.309 1.429,0.618 2.005,1.167 0.594,0.566 0.6,0.995 -0.127,1.533 -2.732,2.018 -2.521,4.274 0.502,5.889 2.057,1.099 3.037,3.146 2.576,5.548 -0.189,0.986 -0.528,1.944 -0.801,2.914 -1.406,4.993 -0.216,11.951 6.2,14.061 5.07,1.667 9.152,-0.095 13.392,-2.165 2.704,-1.321 3.887,-0.791 4.402,2.191 0.516,2.985 2.015,23.323 2.968,30.119"
   id="path15" />&#10;				<path
   style="fill:none;stroke:#7e8c5d;stroke-width:1.5;stroke-linecap:round;stroke-linejoin:round;stroke-miterlimit:10"
   d="m 155.697,103.062 c 9.195,-3.696 12.371,-8.29 9.895,-18.099 -1.861,-7.372 -7.246,-12.445 -14.521,-14.465 -6.368,-1.768 -6.846,5.758 -12.354,7.645 -1.958,0.671 -4.319,0.414 -5.819,-1.011 -1.259,-1.196 -1.74,-2.975 -2.633,-4.465 -6.074,-10.132 -17.022,-0.897 -22.056,4.978 -4.905,5.725 -9.831,17.807 -4.985,25.055 3.827,5.724 9.564,5.729 13.059,0.515 3.724,-5.554 6.106,-11.865 13.046,-14.083 1.694,-0.541 3.692,-0.789 5.13,0.258 1.713,1.246 1.863,3.675 2.337,5.74 0.999,4.345 4.307,8.17 8.576,9.455 2.474,0.744 6.497,0.016 10.325,-1.523 z"
   id="path16" />&#10;			</g>&#10;		</g>&#10;	</g><g
   id="g24"
   transform="translate(508.47457,-288.13559)">&#10;		<g
   id="g20">&#10;			&#10;				<text
   transform="translate(304.4235,460.5725)"
   style="font-size:25.9279px;font-family:Lato-Heavy;letter-spacing:1;fill:#d0dbbb"
   id="text18">HEALTH</text>&#10;			<g
   id="g19">&#10;				&#10;					<text
   transform="translate(327.9322,436.2529)"
   style="font-size:12.3774px;font-family:Lato-Medium;letter-spacing:2;fill:#798d5a"
   id="text19">MENTAL</text>&#10;			</g>&#10;		</g>&#10;		<g
   id="g23">&#10;			<g
   id="g22">&#10;				<g
   id="g21">&#10;					<path
   style="fill:#d0dbbb"
   d="m 365.22,272.793 c 0.03,-0.01 0.07,-0.02 0.1,-0.03 -7.7,-0.5 -15.29,0.27 -22.76,2.63 -16.9,5.35 -25.57,21.69 -23.53,35.68 0.51,3.47 -0.1,6.82 -2.61,9.53 -3.11,3.38 -6.28,6.71 -9.43,10.06 -0.72,0.77 -1.5,1.48 -2.07,2.4 -1.3,2.11 -0.88,3.81 1.31,4.96 1.49,0.78 3.02,1.5 4.66,1.87 1.13,0.26 1.22,0.78 0.74,1.69 -0.62,1.17 -1.18,2.37 -1.78,3.55 -0.79,1.58 -0.54,2.67 0.91,3.66 0.62,0.43 1.23,0.86 1.67,1.49 0.46,0.64 0.38,1.05 -0.41,1.42 -2.96,1.39 -3.19,3.57 -0.64,5.66 1.74,1.43 2.28,3.55 1.39,5.74 -0.36,0.89 -0.87,1.73 -1.31,2.6 -2.27,4.45 -0.67,8.62 4.07,10.16 4.28,1.39 8.67,1.64 13.07,0.48 2.8,-0.74 3.82,-0.01 3.74,2.9 -0.11,4.47 -0.17,8.95 -0.45,13.41 -0.21,3.2 -1.26,7.47 1.6,9.81 1.09,0.9 2.52,1.61 4.1,2.16 4.78,1.68 10.69,3.35 16.82,4.3 0.05,-0.53 0.1,-1.05 0.13,-1.54 0.29,-4.46 0.35,-26.27 0.46,-30.74 0.08,-2.91 -0.94,-3.64 -3.74,-2.9 -4.4,1.15 -8.79,0.9 -13.07,-0.49 -4.74,-1.53 -6.34,-5.7 -4.07,-10.15 0.44,-0.87 0.94,-1.71 1.31,-2.61 0.89,-2.18 0.35,-4.3 -1.39,-5.73 -2.55,-2.1 -2.32,-4.27 0.64,-5.66 0.79,-0.37 0.87,-0.78 0.41,-1.43 -0.44,-0.62 -1.05,-1.05 -1.67,-1.48 -1.45,-0.99 -1.7,-2.08 -0.91,-3.66 0.6,-1.18 1.16,-2.38 1.78,-3.56 0.48,-0.9 0.39,-1.43 -0.74,-1.68 -1.64,-0.37 -3.17,-1.1 -4.66,-1.88 -2.19,-1.14 -2.61,-2.85 -1.31,-4.95 0.57,-0.92 1.35,-1.63 2.07,-2.4 3.15,-3.35 6.32,-6.68 9.43,-10.06 2.51,-2.71 3.12,-6.06 2.61,-9.53 -2.04,-14 6.619,-30.331 23.53,-35.68 z m 3.682,15.96 c -4.441,5.807 -1.085,11.088 0.008,12.387 4.508,5.355 9.6,2.659 15.289,5.654 2.573,1.354 5.236,2.913 6.992,5.291 1.407,1.905 1.419,4.28 2.447,6.327 0.914,1.82 3.375,3.785 5.377,4.276 8.052,1.974 11.571,-4.748 11.646,-8.072 0.175,-7.747 -7.085,-9.643 -8.955,-10.895 -2.293,-1.536 -4.833,-2.715 -6.942,-4.495 -2.989,-2.523 -4.902,-6.069 -7.451,-9.036 -2.315,-2.695 -5.641,-4.795 -9.213,-5.218 -3.428,-0.408 -7.153,1.106 -9.198,3.781 z"
   id="path20" />&#10;				</g>&#10;			</g>&#10;			<path
   style="fill:none;stroke:#7e8c5d;stroke-width:1.5;stroke-linecap:round;stroke-linejoin:round;stroke-miterlimit:10"
   d="m 358.735,272.342 c -14.378,-0.299 -19.414,1.502 -24.652,3.159 -17.537,5.548 -26.523,22.495 -24.409,37.011 0.524,3.601 -0.107,7.076 -2.703,9.889 -3.233,3.503 -6.515,6.961 -9.782,10.433 -0.753,0.8 -1.565,1.54 -2.151,2.491 -1.346,2.186 -0.917,3.952 1.356,5.143 1.543,0.808 3.13,1.561 4.836,1.944 1.177,0.265 1.261,0.807 0.766,1.748 -0.64,1.216 -1.223,2.461 -1.841,3.689 -0.823,1.634 -0.566,2.765 0.937,3.797 0.648,0.445 1.28,0.886 1.737,1.538 0.471,0.671 0.394,1.094 -0.425,1.478 -3.074,1.443 -3.31,3.697 -0.662,5.874 1.801,1.481 2.362,3.68 1.439,5.946 -0.379,0.93 -0.899,1.803 -1.357,2.701 -2.357,4.621 -0.694,8.945 4.217,10.539 4.443,1.442 8.993,1.701 13.557,0.502 2.911,-0.765 3.966,-0.014 3.887,3.011 -0.079,3.028 -0.438,9.918 -0.835,16.769"
   id="path22" />&#10;			<path
   style="fill:none;stroke:#7e8c5d;stroke-width:1.5;stroke-linecap:round;stroke-linejoin:round;stroke-miterlimit:10"
   d="m 400.14,290.49 c -4.324,-6.143 -10.927,-10.892 -18.361,-11.967 -7.434,-1.074 -15.574,1.96 -19.684,8.248 -4.109,6.288 -3.277,15.643 2.503,20.44 4.716,3.913 11.442,4.339 16.679,7.521 8.834,5.368 10.478,19.217 23.576,14.813 12.658,-4.256 14.511,-25.539 11.148,-36.107 -2.166,-6.807 -7.158,-12.512 -13.194,-16.333 -13.376,-8.469 -31.29,-8.881 -46.066,-4.207 -17.536,5.548 -26.523,22.494 -24.409,37.011 0.524,3.6 -0.107,7.076 -2.703,9.889 -3.233,3.503 -6.515,6.961 -9.782,10.433 -0.753,0.8 -1.565,1.54 -2.151,2.491 -1.346,2.186 -0.918,3.952 1.356,5.143 1.543,0.808 3.13,1.561 4.836,1.944 1.177,0.265 1.261,0.807 0.766,1.748 -0.64,1.216 -1.223,2.462 -1.841,3.689 -0.823,1.634 -0.566,2.766 0.937,3.797 0.648,0.444 1.28,0.886 1.737,1.538 0.471,0.671 0.394,1.094 -0.425,1.478 -3.074,1.443 -3.31,3.697 -0.662,5.874 1.801,1.481 2.362,3.68 1.438,5.946 -0.379,0.93 -0.899,1.803 -1.357,2.701 -2.357,4.621 -0.694,8.945 4.217,10.539 4.443,1.442 8.993,1.701 13.557,0.502 2.911,-0.765 3.966,-0.014 3.887,3.011 -0.079,3.028 -0.438,20.565 -0.835,27.416"
   id="path23" />&#10;		</g>&#10;	</g><g
   id="g28"
   transform="matrix(0.68075028,0,0,0.68075028,-30.210539,-173.83799)">&#10;		&#10;		<g
   id="g27">&#10;			<path
   style="fill:#a8cbe5"
   d="m 200.742,344.014 c -0.564,-0.917 -1.348,-1.63 -2.073,-2.401 -3.149,-3.347 -6.313,-6.68 -9.43,-10.057 -2.502,-2.711 -3.111,-6.062 -2.605,-9.533 1.898,-13.032 -5.489,-28.092 -20.167,-34.42 -3.959,-4.13 -8.749,-7.367 -14.037,-10.003 -7.538,-3.759 -15.546,-6.013 -23.908,-7.042 -9.155,-1.127 -18.149,-0.564 -26.987,2.232 -16.905,5.348 -25.568,21.685 -23.53,35.678 0.506,3.471 -0.103,6.821 -2.605,9.533 -3.116,3.377 -6.281,6.71 -9.43,10.057 -0.726,0.771 -1.509,1.485 -2.074,2.401 -1.297,2.107 -0.884,3.81 1.307,4.957 1.487,0.779 3.017,1.505 4.662,1.874 1.134,0.255 1.216,0.778 0.739,1.685 -0.617,1.172 -1.179,2.373 -1.775,3.556 -0.793,1.575 -0.546,2.666 0.903,3.661 0.624,0.428 1.234,0.854 1.675,1.482 0.454,0.647 0.38,1.054 -0.41,1.425 -2.964,1.391 -3.191,3.564 -0.638,5.662 1.737,1.427 2.277,3.548 1.387,5.732 -0.365,0.897 -0.867,1.738 -1.308,2.603 -2.272,4.454 -0.669,8.623 4.065,10.16 4.283,1.39 8.669,1.64 13.069,0.484 2.806,-0.737 3.823,-0.013 3.747,2.903 -0.117,4.467 -0.169,8.947 -0.458,13.407 -0.207,3.196 -1.255,7.464 1.601,9.806 1.095,0.898 2.522,1.612 4.106,2.166 6.866,2.401 16.054,4.791 24.897,5.089 -0.17,3.534 -0.058,7.464 2.488,9.167 4.91,3.284 11.204,4.468 17.771,4.422 9.28,-0.066 19.106,-2.591 26.348,-5.123 1.584,-0.554 3.011,-1.268 4.106,-2.167 2.855,-2.342 1.807,-6.61 1.6,-9.806 -0.289,-4.461 -0.34,-8.94 -0.458,-13.407 -0.076,-2.916 0.941,-3.64 3.747,-2.903 4.4,1.156 8.786,0.906 13.069,-0.484 4.734,-1.536 6.337,-5.706 4.065,-10.16 -0.441,-0.865 -0.943,-1.707 -1.308,-2.603 -0.89,-2.184 -0.35,-4.304 1.387,-5.732 2.552,-2.098 2.325,-4.271 -0.638,-5.662 -0.789,-0.37 -0.864,-0.778 -0.41,-1.425 0.441,-0.628 1.05,-1.054 1.675,-1.482 1.449,-0.995 1.696,-2.086 0.903,-3.661 -0.596,-1.183 -1.159,-2.384 -1.775,-3.556 -0.477,-0.907 -0.396,-1.43 0.739,-1.685 1.644,-0.37 3.174,-1.096 4.662,-1.874 2.19,-1.145 2.603,-2.848 1.306,-4.956 z m -60.108,-28.148 c -0.357,0.245 -0.574,0.645 -0.531,1.076 l 1.568,15.748 c 0.067,0.673 -0.462,1.257 -1.138,1.257 h -8.596 c -0.676,0 -1.205,-0.584 -1.138,-1.257 l 1.568,-15.749 c 0.043,-0.431 -0.173,-0.831 -0.53,-1.076 -2.53,-1.731 -4.008,-4.879 -3.179,-8.333 0.667,-2.778 2.929,-5.026 5.712,-5.67 5.122,-1.185 9.673,2.672 9.673,7.592 0.001,2.675 -1.359,5.009 -3.409,6.412 z"
   id="path25" />&#10;			<path
   style="fill:none;stroke:#2f84af;stroke-width:1.5;stroke-linecap:round;stroke-linejoin:round;stroke-miterlimit:10"
   d="m 121.796,379.857 c 0.366,-1.015 1.016,-1.898 1.657,-2.766 9.522,-12.883 18.749,-24.797 24.804,-39.843 5.528,-13.738 8.664,-29.343 4.06,-43.809 -2.166,-6.807 -7.158,-12.512 -13.194,-16.334 -13.376,-8.469 -31.29,-8.881 -46.066,-4.207 -17.537,5.548 -26.523,22.494 -24.409,37.011 0.524,3.6 -0.107,7.076 -2.703,9.889 -3.233,3.503 -6.515,6.961 -9.782,10.433 -0.753,0.8 -1.565,1.54 -2.151,2.491 -1.346,2.186 -0.917,3.952 1.356,5.143 1.543,0.808 3.13,1.561 4.836,1.944 1.177,0.265 1.261,0.807 0.766,1.748 -0.64,1.216 -1.223,2.462 -1.842,3.689 -0.823,1.634 -0.566,2.766 0.937,3.797 0.648,0.444 1.28,0.886 1.737,1.538 0.471,0.671 0.394,1.094 -0.425,1.478 -3.074,1.443 -3.31,3.697 -0.662,5.874 1.801,1.481 2.362,3.68 1.438,5.946 -0.379,0.93 -0.899,1.803 -1.357,2.701 -2.357,4.621 -0.694,10.152 4.217,11.745 4.443,1.442 8.993,1.701 13.557,0.502 2.911,-0.765 3.966,-0.014 3.887,3.011 -0.079,3.028 -0.438,9.918 -0.835,16.769"
   id="path26" />&#10;			<path
   style="fill:none;stroke:#2f84af;stroke-width:1.5;stroke-linecap:round;stroke-linejoin:round;stroke-miterlimit:10"
   d="m 183.014,412.159 c -0.397,-6.851 -0.755,-13.74 -0.835,-16.769 -0.079,-3.025 0.976,-3.776 3.887,-3.011 4.564,1.199 9.114,0.94 13.557,-0.502 4.911,-1.594 6.574,-7.125 4.217,-11.745 -0.458,-0.898 -0.978,-1.77 -1.357,-2.701 -0.923,-2.265 -0.363,-4.465 1.439,-5.946 2.648,-2.176 2.412,-4.43 -0.662,-5.874 -0.818,-0.384 -0.896,-0.807 -0.425,-1.478 0.458,-0.651 1.09,-1.093 1.737,-1.538 1.503,-1.032 1.76,-2.164 0.937,-3.797 -0.618,-1.228 -1.202,-2.473 -1.842,-3.689 -0.495,-0.94 -0.41,-1.483 0.766,-1.748 1.706,-0.384 3.293,-1.137 4.836,-1.944 2.273,-1.19 2.702,-2.957 1.356,-5.143 -0.586,-0.951 -1.398,-1.691 -2.151,-2.491 -3.267,-3.472 -6.549,-6.929 -9.782,-10.433 -2.596,-2.813 -3.227,-6.288 -2.703,-9.889 2.114,-14.517 -6.872,-31.463 -24.409,-37.011 -11.93,-3.774 -27.037,-5.581 -38.644,0.163 -11.451,5.666 -16.335,18.429 -16.794,30.557 -0.242,6.378 0.623,12.831 2.515,18.926 5.585,17.992 20.249,33.683 35.333,44.46"
   id="path27" />&#10;		</g>&#10;	</g><g
   id="g35"
   transform="translate(508.47457,-288.13559)">&#10;		<g
   id="g29">&#10;			&#10;				<text
   transform="translate(510.7568,460.5725)"
   style="font-size:25.9279px;font-family:Lato-Heavy;letter-spacing:1;fill:#a8cbe5"
   id="text28">HEALTH</text>&#10;			&#10;				<text
   transform="translate(534.2656,436.2529)"
   style="font-size:12.3774px;font-family:Lato-Medium;letter-spacing:2;fill:#2f84af"
   id="text29">MENTAL</text>&#10;		</g>&#10;		<g
   id="g34">&#10;			<path
   style="fill:#a8cbe5"
   d="m 646.392,322.088 c -2.815,-19.924 -12.777,-34.265 -32.345,-40.882 -8.198,-2.769 -16.589,-3.583 -25.079,-3.208 -2.312,0.101 -4.634,0.292 -6.965,0.548 -6.524,0.724 -12.374,2.831 -17.382,5.902 -5.008,-3.071 -10.857,-5.179 -17.382,-5.902 -2.331,-0.256 -4.652,-0.448 -6.964,-0.548 -8.491,-0.375 -16.881,0.439 -25.079,3.208 -19.568,6.617 -29.53,20.957 -32.345,40.882 -0.311,2.166 -0.411,4.278 -0.329,6.352 0.265,6.928 2.605,13.353 6.517,19.413 2.358,3.638 4.625,7.348 7.102,10.913 8.18,11.799 9.204,24.412 4.46,37.711 -1.152,3.254 -2.499,6.428 -3.711,9.661 -1.106,2.951 11.946,7.409 26.988,7.409 15.042,0 22.75,-2.917 23.5,-7.601 0.727,-4.542 1.691,-8.811 4.433,-12.594 1.693,-2.335 3.806,-3.735 6.482,-4.095 0.751,0.003 1.502,-0.008 2.252,-0.018 1.358,-0.008 2.718,-0.028 4.078,-0.046 1.36,0.018 2.72,0.038 4.078,0.046 0.75,0.01 1.501,0.021 2.252,0.018 2.676,0.36 4.789,1.76 6.482,4.095 2.742,3.784 3.802,8.038 4.433,12.594 0.573,4.143 11.24,7.643 26.448,7.643 15.208,0 25.281,-4.344 24.039,-7.451 -1.281,-3.206 -2.559,-6.407 -3.711,-9.661 -4.744,-13.298 -3.72,-25.911 4.46,-37.711 2.477,-3.564 4.744,-7.275 7.102,-10.913 3.912,-6.06 6.252,-12.485 6.517,-19.413 0.081,-2.075 -0.02,-4.186 -0.331,-6.352 z M 569.3,315.366 c -0.357,0.245 -0.573,0.645 -0.531,1.076 l 1.568,15.748 c 0.067,0.673 -0.462,1.257 -1.138,1.257 h -8.596 c -0.676,0 -1.205,-0.584 -1.138,-1.257 l 1.568,-15.749 c 0.043,-0.431 -0.173,-0.831 -0.53,-1.076 -2.53,-1.731 -4.008,-4.879 -3.179,-8.333 0.667,-2.778 2.929,-5.026 5.712,-5.67 5.122,-1.185 9.673,2.672 9.673,7.592 0.001,2.675 -1.358,5.009 -3.409,6.412 z"
   id="path29" />&#10;			<g
   id="g30">&#10;				<path
   style="fill:#ffffff"
   d="m 572.95,389.191 c 1.289,-0.123 2.573,-0.326 3.801,-0.718 1.223,-0.387 2.398,-0.985 3.304,-1.881 0.913,-0.888 1.51,-2.055 1.794,-3.287 0.286,-1.235 0.321,-2.525 0.198,-3.796 -0.123,-1.258 -0.427,-2.553 -0.348,-3.903 0.039,-1.345 0.621,-2.717 1.605,-3.662 0.454,-0.485 1.074,-0.884 1.536,-1.238 0.474,-0.369 0.786,-0.856 0.742,-1.365 -0.046,-0.518 -0.39,-1.039 -0.79,-1.5 -0.403,-0.467 -0.872,-0.897 -1.353,-1.321 l -0.467,-0.412 0.592,-0.219 c 0.901,-0.333 1.767,-0.828 2.163,-1.607 0.412,-0.77 0.32,-1.753 0.113,-2.701 -0.215,-0.956 -0.518,-1.957 -0.677,-2.995 -0.09,-0.516 -0.129,-1.074 -0.046,-1.65 0.079,-0.58 0.378,-1.157 0.77,-1.573 0.801,-0.815 1.72,-1.301 2.606,-1.812 0.892,-0.507 1.786,-0.962 2.628,-1.485 0.809,-0.526 1.622,-1.149 1.927,-1.913 0.32,-0.749 -0.046,-1.65 -0.539,-2.464 -2.293,-3.241 -4.837,-6.497 -7.211,-9.77 -1.244,-1.606 -2.351,-3.462 -2.959,-5.468 -0.628,-2.005 -0.788,-4.152 -0.501,-6.224 0.07,-0.519 0.173,-1.031 0.286,-1.541 l 0.285,-1.476 c 0.09,-0.493 0.201,-0.982 0.275,-1.477 l 0.156,-1.495 c 0.138,-0.995 0.152,-1.998 0.164,-3.001 0.056,-1.004 -0.041,-2.004 -0.101,-3.005 -0.285,-4.003 -1.264,-7.959 -2.839,-11.666 -3.15,-7.425 -8.656,-13.826 -15.52,-18.18 7.017,4.096 12.794,10.421 16.103,17.925 1.665,3.741 2.736,7.758 3.097,11.852 0.067,1.025 0.171,2.05 0.12,3.079 -0.006,1.029 -0.015,2.057 -0.15,3.079 l -0.153,1.536 c -0.072,0.509 -0.183,1.012 -0.273,1.519 l -0.285,1.517 c -0.104,0.483 -0.198,0.966 -0.261,1.455 -0.258,1.952 -0.097,3.95 0.5,5.82 0.59,1.887 1.599,3.575 2.846,5.169 l 3.63,4.892 1.808,2.451 c 0.594,0.826 1.223,1.603 1.793,2.517 0.269,0.463 0.523,0.951 0.674,1.51 0.153,0.553 0.156,1.215 -0.08,1.785 -0.227,0.574 -0.616,1.017 -1.019,1.383 -0.405,0.371 -0.839,0.68 -1.282,0.96 -0.886,0.545 -1.808,1.006 -2.684,1.498 -0.872,0.489 -1.767,0.986 -2.397,1.627 -0.629,0.626 -0.675,1.521 -0.516,2.495 0.143,0.973 0.425,1.923 0.651,2.949 0.207,1.005 0.335,2.195 -0.236,3.252 -0.576,1.054 -1.641,1.588 -2.62,1.936 l 0.125,-0.631 c 0.482,0.441 0.964,0.896 1.4,1.417 0.423,0.518 0.856,1.121 0.924,1.915 0.057,0.817 -0.471,1.518 -1.016,1.917 -0.574,0.422 -1.061,0.715 -1.508,1.169 -0.902,0.847 -1.425,2.011 -1.49,3.261 -0.103,1.248 0.182,2.513 0.271,3.831 0.09,1.307 0.019,2.642 -0.315,3.922 -0.332,1.277 -0.996,2.487 -1.971,3.383 -0.969,0.905 -2.189,1.483 -3.439,1.835 -1.254,0.352 -2.549,0.506 -3.841,0.58 z"
   id="path30" />&#10;			</g>&#10;			<path
   style="fill:none;stroke:#2f84af;stroke-width:1.5;stroke-linecap:round;stroke-linejoin:round;stroke-miterlimit:10"
   d="m 578.493,414.081 c -0.37,-5.17 -1.904,-9.928 -4.996,-14.187 -2.226,-3.066 -5.087,-4.708 -8.849,-4.721 -3.391,-0.012 -6.781,0.075 -10.172,0.098 -1.595,0.011 -3.194,0.052 -4.783,-0.051 -8.203,-0.533 -11.559,-4.492 -10.324,-12.579 0.503,-3.289 0.124,-5.662 -2.92,-7.676 -2.704,-1.789 -0.915,-3.74 1.151,-5.595 -3.443,-1.208 -3.396,-3.409 -2.731,-5.998 1.333,-5.194 1.065,-5.676 -3.673,-8.256 -0.613,-0.334 -1.233,-0.658 -1.831,-1.017 -3.484,-2.091 -3.815,-3.757 -1.42,-6.972 2.68,-3.598 5.364,-7.192 8.021,-10.807 3.01,-4.096 4.053,-8.709 2.898,-13.615 -5.458,-23.171 11.661,-48.949 39.778,-52.076 12.24,-1.362 24.338,-0.973 36.081,3"
   id="path31" />&#10;			<path
   style="fill:none;stroke:#2f84af;stroke-width:1.5;stroke-linecap:round;stroke-linejoin:round;stroke-miterlimit:10"
   d="m 550.749,414.081 c 0.37,-5.17 1.904,-9.928 4.996,-14.187 2.226,-3.066 5.087,-4.708 8.849,-4.721 3.39,-0.012 6.781,0.075 10.172,0.098 1.594,0.011 3.194,0.052 4.783,-0.051 8.203,-0.533 11.56,-4.492 10.324,-12.579 -0.503,-3.289 -0.124,-5.662 2.92,-7.676 2.704,-1.789 0.915,-3.74 -1.151,-5.595 3.443,-1.208 3.396,-3.409 2.731,-5.998 -1.333,-5.194 -1.065,-5.676 3.673,-8.256 0.613,-0.334 1.233,-0.658 1.831,-1.017 3.484,-2.091 3.816,-3.757 1.42,-6.972 -2.68,-3.598 -5.364,-7.192 -8.021,-10.807 -3.01,-4.096 -4.053,-8.709 -2.898,-13.615 5.458,-23.171 -11.661,-48.949 -39.778,-52.076 -12.24,-1.362 -24.338,-0.973 -36.081,3"
   id="path32" />&#10;			<g
   id="g33">&#10;				<path
   style="fill:#ffffff"
   d="m 556.293,389.191 c -1.292,-0.075 -2.587,-0.229 -3.844,-0.579 -1.25,-0.352 -2.469,-0.93 -3.438,-1.834 -0.976,-0.896 -1.64,-2.106 -1.971,-3.383 -0.334,-1.28 -0.405,-2.615 -0.316,-3.922 0.088,-1.318 0.373,-2.584 0.271,-3.831 -0.065,-1.25 -0.588,-2.414 -1.49,-3.261 -0.448,-0.454 -0.935,-0.747 -1.508,-1.169 -0.544,-0.398 -1.073,-1.1 -1.016,-1.917 0.068,-0.794 0.502,-1.397 0.925,-1.915 0.435,-0.522 0.917,-0.976 1.4,-1.417 l 0.125,0.632 c -0.977,-0.347 -2.04,-0.88 -2.617,-1.93 -0.572,-1.053 -0.448,-2.242 -0.241,-3.246 0.225,-1.025 0.508,-1.973 0.651,-2.945 0.158,-0.971 0.122,-1.871 -0.499,-2.497 -0.627,-0.64 -1.516,-1.139 -2.387,-1.627 -0.874,-0.491 -1.794,-0.954 -2.679,-1.493 -0.858,-0.571 -1.804,-1.188 -2.311,-2.319 -0.243,-0.562 -0.257,-1.224 -0.109,-1.78 0.143,-0.563 0.393,-1.053 0.659,-1.518 0.566,-0.916 1.197,-1.693 1.789,-2.516 l 1.805,-2.447 3.624,-4.883 c 1.246,-1.595 2.264,-3.268 2.864,-5.151 0.607,-1.863 0.781,-3.857 0.536,-5.807 -0.065,-0.487 -0.149,-0.972 -0.256,-1.453 l -0.285,-1.51 -0.28,-1.515 -0.153,-1.533 c -0.044,-0.511 -0.118,-1.021 -0.136,-1.533 l -0.023,-1.54 c -0.05,-1.027 0.039,-2.05 0.111,-3.074 0.347,-4.088 1.403,-8.101 3.052,-11.84 3.277,-7.502 9.015,-13.84 16.003,-17.956 -6.834,4.374 -12.301,10.787 -15.419,18.209 -1.559,3.706 -2.523,7.657 -2.795,11.654 -0.064,1 -0.147,1.999 -0.091,3 l 0.031,1.501 c 0.02,0.5 0.096,0.996 0.142,1.494 l 0.157,1.492 0.282,1.474 0.287,1.476 c 0.117,0.508 0.209,1.022 0.281,1.539 0.274,2.071 0.1,4.214 -0.539,6.211 -0.616,1.999 -1.736,3.844 -2.975,5.444 -2.367,3.266 -4.912,6.518 -7.193,9.752 -0.485,0.816 -0.836,1.713 -0.502,2.457 0.315,0.76 1.132,1.377 1.94,1.902 0.843,0.519 1.734,0.975 2.625,1.481 0.884,0.51 1.801,1 2.599,1.816 0.391,0.419 0.683,0.999 0.756,1.578 0.078,0.575 0.036,1.129 -0.053,1.645 -0.159,1.036 -0.464,2.035 -0.677,2.988 -0.205,0.947 -0.295,1.927 0.118,2.694 0.397,0.777 1.26,1.27 2.16,1.602 l 0.593,0.219 -0.467,0.413 c -0.48,0.424 -0.95,0.854 -1.352,1.321 -0.4,0.461 -0.745,0.982 -0.79,1.5 -0.044,0.509 0.267,0.995 0.742,1.364 0.461,0.354 1.081,0.753 1.536,1.238 0.984,0.945 1.567,2.317 1.605,3.662 0.079,1.351 -0.225,2.645 -0.347,3.903 -0.123,1.271 -0.088,2.561 0.197,3.796 0.285,1.232 0.882,2.398 1.794,3.287 0.906,0.897 2.081,1.495 3.304,1.881 1.222,0.391 2.506,0.594 3.795,0.716 z"
   id="path33" />&#10;			</g>&#10;		</g>&#10;	</g><g
   id="g59"
   transform="translate(508.47457,-288.13559)">&#10;		<g
   id="g36">&#10;			&#10;				<text
   transform="translate(526.7568,232.2392)"
   style="font-size:25.9279px;font-family:Lato-Heavy;letter-spacing:1;fill:#d0dbbb"
   id="text35">HEALTH</text>&#10;			<text
   transform="translate(556.0656,207.9195)"
   style="font-size:12.3774px;font-family:Lato-Medium;fill:#798d5a"
   id="text36">MENTAL</text>&#10;		</g>&#10;		<g
   id="g58">&#10;			<path
   style="fill:#d0dbbb"
   d="m 555.091,188.699 c -0.258,-0.172 -0.497,-0.372 -0.714,-0.607 -0.722,-0.78 -1.076,-1.823 -1.376,-2.842 -2.674,-9.082 -2.917,-16.459 -4.64,-25.786 -0.637,-3.447 -1.552,-6.528 -2.423,-9.94 -0.52,-2.039 -1.461,-2.384 -3.316,-2.137 -4.988,0.665 -10.006,1.056 -15.042,1.064 -4.915,0.008 -7.738,-2.771 -8.001,-7.73 -0.129,-2.437 -0.067,-4.885 0.711,-7.188 0.667,-1.974 0.472,-3.693 -0.795,-5.236 -1.34,-1.632 -1.317,-3.187 -0.096,-4.807 0.623,-0.828 0.985,-1.456 -0.307,-2.133 -1.904,-0.998 -2.203,-2.616 -1.24,-4.502 0.168,-0.33 0.289,-0.686 0.413,-1.036 1.403,-3.984 1.385,-4.018 -2.654,-5.364 -5.187,-1.728 -6.201,-4.782 -2.574,-8.881 4.911,-5.55 11.746,-10.339 13.754,-17.739 1.519,-5.597 2.001,-11.455 3.257,-17.111 4.831,-21.76 20.539,-25.077 31.584,-26.237 8.247,-0.866 16.427,-0.603 24.806,-0.603 24.691,0 39.96,30.111 40.492,42.83 0.592,14.151 -5.161,25.84 -14.368,36.128 -4.961,5.544 -9.609,9.64 -10.371,17.43 -0.62,6.342 0.536,12.317 0.949,18.622 0.231,3.526 1.75,7.251 2.651,10.643 1.257,4.738 4.933,8.367 -1.121,12.837 -5.311,3.921 -14.449,7.474 -21.777,9.255 -7.326,1.78 -15.686,2.056 -23.174,2.066 -1.599,0 -3.34,-0.137 -4.628,-0.996 z"
   id="path36" />&#10;			<g
   id="g57">&#10;				<path
   style="fill:none;stroke:#7e8c5d;stroke-width:1.5;stroke-linecap:round;stroke-linejoin:round;stroke-miterlimit:10"
   d="m 547.853,190.993 c -2.238,-7.601 -6.438,-30.859 -7.704,-35.816 -0.562,-2.203 -1.579,-2.576 -3.582,-2.309 -5.389,0.719 -10.811,1.141 -16.252,1.15 -5.31,0.009 -8.36,-5.974 -8.644,-11.332 -0.14,-2.633 -0.073,-5.278 0.768,-7.767 0.721,-2.133 0.51,-3.99 -0.859,-5.657 -1.448,-1.764 -1.423,-3.443 -0.104,-5.194 0.673,-0.894 1.064,-1.573 -0.332,-2.305 -2.057,-1.078 -2.381,-2.826 -1.34,-4.864 0.182,-0.356 0.313,-0.741 0.446,-1.12 1.516,-4.304 1.497,-4.342 -2.868,-5.796 -5.605,-1.867 -6.7,-5.167 -2.782,-9.595 3.733,-4.219 7.718,-8.194 11.727,-12.121 2.523,-2.472 3.29,-6.205 3.853,-9.554 0.677,-4.027 2.281,-17.01 2.754,-19.442 5.942,-30.558 38.02,-27.839 45.275,-26.891 70.167,9.167 34.917,49.333 5.647,45.271 -7.21,-1.001 -15.979,-4.365 -16.724,-12.793 -1.332,-15.064 16.851,-13.766 21.682,-13.31 18.312,1.728 23.144,17.662 21.937,27.54 -2.111,17.265 -25.818,14.065 -38.115,23.103 -8.76,6.439 -3.594,17.022 6.86,17.243"
   id="path37" />&#10;				<g
   id="g56">&#10;					&#10;						<path
   style="fill:none;stroke:#7e8c5d;stroke-width:1.5;stroke-linecap:round;stroke-linejoin:round;stroke-miterlimit:10"
   d="m 584.377,94.4 c -0.742,4.22 -1.437,7.98 0.481,11.811 1.611,3.218 4.843,5.352 8.222,6.591"
   id="path38" />&#10;					&#10;						<path
   style="fill:none;stroke:#7e8c5d;stroke-width:1.5;stroke-linecap:round;stroke-linejoin:round;stroke-miterlimit:10"
   d="m 556.387,96.4 c -1.673,-0.231 -3.238,-1.371 -3.971,-2.892 -1.748,-3.628 0.582,-7.142 2.209,-8.05 7.376,-4.12 15.335,4.505 18.102,10.678"
   id="path39" />&#10;					&#10;						<path
   style="fill:none;stroke:#7e8c5d;stroke-width:1.5;stroke-linecap:round;stroke-linejoin:round;stroke-miterlimit:10"
   d="m 578.909,63.178 c -0.718,-1.389 -2.151,-2.41 -3.71,-2.53 -1.559,-0.12 -3.177,0.716 -3.894,2.105 -1.035,2.007 -0.038,4.553 1.604,6.103 1.642,1.55 3.803,2.397 5.793,3.466 1.989,1.069 3.96,2.537 4.658,4.685"
   id="path40" />&#10;					&#10;						<path
   style="fill:none;stroke:#7e8c5d;stroke-width:1.5;stroke-linecap:round;stroke-linejoin:round;stroke-miterlimit:10"
   d="m 600.771,94.372 c 0.559,1.105 0.849,2.373 0.653,3.596 -0.195,1.223 -0.916,2.387 -2.009,2.969 -1.346,0.716 -2.969,0.476 -4.494,0.49 -2.04,0.019 -4.123,0.563 -5.728,1.824 -1.605,1.26 -2.66,3.297 -2.455,5.327"
   id="path41" />&#10;					&#10;						<path
   style="fill:none;stroke:#7e8c5d;stroke-width:1.5;stroke-linecap:round;stroke-linejoin:round;stroke-miterlimit:10"
   d="m 548.252,75.067 c 0.271,2.896 2.685,3.809 3.815,4.11 1.13,0.301 4.956,0.911 4.185,5.286"
   id="path42" />&#10;					&#10;						<path
   style="fill:none;stroke:#7e8c5d;stroke-width:1.5;stroke-linecap:round;stroke-linejoin:round;stroke-miterlimit:10"
   d="m 561.84,116.816 c -0.476,-2.03 -0.078,-5.103 1.412,-6.562 4.673,-4.576 11.219,-1.354 11.75,2.333"
   id="path43" />&#10;					&#10;						<path
   style="fill:none;stroke:#7e8c5d;stroke-width:1.5;stroke-linecap:round;stroke-linejoin:round;stroke-miterlimit:10"
   d="m 600.94,77.555 c 0.541,-0.373 1.205,-0.528 1.86,-0.587 3.267,-0.294 7.335,-0.294 8.557,4.14 0.563,2.042 -1.188,5.583 -4.378,5.645"
   id="path44" />&#10;					<path
   style="fill:#798d5a"
   d="m 571.506,104.444 c 0.63,-1.875 2.099,-3.45 3.925,-4.208 0.517,-0.215 1.02,2.633 0.126,5.26 -0.549,1.613 -2.102,3.454 -3.665,4.167 -0.923,-1.478 -0.932,-3.592 -0.386,-5.219 z"
   id="path45" />&#10;					<path
   style="fill:#798d5a"
   d="m 604.178,100.977 c 1.875,0.629 3.45,2.099 4.208,3.925 0.215,0.517 -2.633,1.02 -5.26,0.126 -1.613,-0.549 -3.454,-2.102 -4.167,-3.665 1.478,-0.924 3.592,-0.932 5.219,-0.386 z"
   id="path46" />&#10;					<path
   style="fill:#798d5a"
   d="m 609.09,73.111 c 0.629,-1.875 2.099,-3.45 3.925,-4.208 0.517,-0.215 1.02,2.633 0.126,5.26 -0.549,1.613 -2.102,3.454 -3.665,4.167 -0.924,-1.478 -0.932,-3.593 -0.386,-5.219 z"
   id="path47" />&#10;					<path
   style="fill:#798d5a"
   d="m 572.139,87.893 c 0.985,-1.715 2.735,-2.971 4.675,-3.356 0.549,-0.109 0.483,2.782 -0.909,5.183 -0.855,1.473 -2.739,2.974 -4.412,3.367 -0.616,-1.631 -0.209,-3.706 0.646,-5.194 z"
   id="path48" />&#10;					<path
   style="fill:#798d5a"
   d="m 548.137,79.755 c 1.804,-0.81 3.958,-0.799 5.755,0.028 0.508,0.234 -1.242,2.536 -3.779,3.662 -1.557,0.691 -3.963,0.8 -5.548,0.135 0.459,-1.682 2.007,-3.122 3.572,-3.825 z"
   id="path49" />&#10;					<path
   style="fill:#798d5a"
   d="m 555.679,88.714 c 1.804,-0.81 3.958,-0.799 5.755,0.028 0.508,0.234 -1.242,2.536 -3.779,3.662 -1.557,0.691 -3.963,0.8 -5.548,0.135 0.459,-1.682 2.006,-3.123 3.572,-3.825 z"
   id="path50" />&#10;					<path
   style="fill:#798d5a"
   d="m 555.326,106.373 c 1.747,0.928 3.06,2.635 3.509,4.561 0.127,0.545 -2.765,0.575 -5.21,-0.737 -1.501,-0.806 -3.063,-2.639 -3.511,-4.298 1.61,-0.669 3.697,-0.331 5.212,0.474 z"
   id="path51" />&#10;					<path
   style="fill:#798d5a"
   d="m 568.493,62.707 c 1.746,0.928 3.06,2.635 3.509,4.561 0.127,0.545 -2.765,0.575 -5.21,-0.737 -1.501,-0.805 -3.063,-2.639 -3.511,-4.298 1.609,-0.669 3.696,-0.331 5.212,0.474 z"
   id="path52" />&#10;					<path
   style="fill:#798d5a"
   d="m 556.493,51.567 c 1.977,0.039 3.92,0.968 5.191,2.484 0.36,0.429 -2.206,1.762 -4.981,1.697 -1.703,-0.04 -3.925,-0.97 -5.074,-2.248 1.134,-1.325 3.149,-1.966 4.864,-1.933 z"
   id="path53" />&#10;					<path
   style="fill:#798d5a"
   d="m 591.138,85.697 c -0.544,-1.901 -0.227,-4.032 0.848,-5.692 0.304,-0.47 2.333,1.591 3.086,4.262 0.462,1.64 0.227,4.037 -0.656,5.511 -1.6,-0.695 -2.806,-2.432 -3.278,-4.081 z"
   id="path54" />&#10;					<path
   style="fill:#798d5a"
   d="m 588.612,51.177 c 0.088,-1.976 1.067,-3.895 2.613,-5.127 0.438,-0.349 1.706,2.25 1.571,5.022 -0.083,1.701 -1.068,3.899 -2.375,5.016 -1.295,-1.167 -1.885,-3.198 -1.809,-4.911 z"
   id="path55" />&#10;					<path
   style="fill:#798d5a"
   d="m 579.512,67.38 c 1.804,-0.81 3.958,-0.799 5.755,0.028 0.508,0.234 -1.242,2.536 -3.779,3.662 -1.557,0.691 -3.963,0.8 -5.548,0.135 0.459,-1.682 2.007,-3.122 3.572,-3.825 z"
   id="path56" />&#10;				</g>&#10;			</g>&#10;		</g>&#10;	</g>&#10;</svg>
